#!OML:ASF Y:\EmotionMaleHayes\Project 1\Capture day 1\Session 1\Male1.ASF
:FULLY-SPECIFIED
:DEGREES
1
root -30.313 17.0966 0.875588 29.5884 85.992 31.2053
lowerback 5.74271 1.9409 -4.63884
upperback 1.05907 2.31784 -0.344443
thorax -2.29446 1.19797 2.06529
lowerneck -20.8368 1.82919 3.0713
upperneck 25.3168 1.98542 -0.62707
head 11.7956 1.20613 -0.409723
rclavicle 1.14301e-015 -1.11319e-014
rhumerus -34.2821 6.36664 -90.9686
rradius 30.2608
rwrist 4.76594
rhand -9.93328 -31.8983
rfingers 7.12502
rthumb 16.0479 -61.2537
lclavicle 1.14301e-015 -1.11319e-014
lhumerus -30.7754 -9.99456 93.0432
lradius 22.5911
lwrist -16.7673
lhand -17.1402 -27.877
lfingers 7.12502
lthumb 9.10009 1.90672
rfemur 7.23942 -2.46144 12.9082
rtibia 5.24205
rfoot -15.7639 -3.17807
rtoes 13.574
lfemur 10.8032 -1.07489 -17.9259
ltibia 0.630626
lfoot -11.8593 10.2996
ltoes -10.0963
2
root -30.3116 17.0969 0.875649 29.677 85.9758 31.3119
lowerback 5.73575 1.94861 -4.62164
upperback 1.06093 2.32904 -0.381433
thorax -2.28723 1.20327 2.01688
lowerneck -20.907 1.83994 3.08258
upperneck 25.4146 1.97984 -0.567183
head 11.8468 1.21399 -0.38913
rclavicle -2.21769e-015 -3.57812e-015
rhumerus -34.2662 6.25316 -90.9906
rradius 30.2692
rwrist 4.859
rhand -9.74934 -32.1405
rfingers 7.12502
rthumb 16.225 -61.4815
lclavicle -2.21769e-015 -3.57812e-015
lhumerus -30.7774 -10.0068 92.9871
lradius 22.5574
lwrist -16.7383
lhand -15.9265 -28.0897
lfingers 7.12502
lthumb 10.271 1.63952
rfemur 7.26015 -2.46027 12.8953
rtibia 5.23216
rfoot -15.7467 -3.18862
rtoes 13.6425
lfemur 10.8373 -1.13952 -17.966
ltibia 0.612086
lfoot -11.7972 10.3527
ltoes -10.0456
3
root -30.3093 17.095 0.876163 28.1183 85.9643 29.7267
lowerback 5.69044 1.9804 -4.55555
upperback 1.05244 2.3777 -0.350015
thorax -2.27282 1.22671 2.00968
lowerneck -20.9919 1.84131 3.06365
upperneck 25.4908 1.97163 -0.515337
head 11.8922 1.21603 -0.366879
rclavicle -8.85834e-015 6.26172e-015
rhumerus -34.274 6.11737 -90.8957
rradius 30.2586
rwrist 4.98142
rhand -9.43791 -32.3817
rfingers 7.12502
rthumb 16.5249 -61.6981
lclavicle -8.85834e-015 6.26172e-015
lhumerus -30.6925 -9.67012 92.8731
lradius 22.3973
lwrist -17.0549
lhand -15.7812 -28.2301
lfingers 7.12502
lthumb 10.4113 1.49217
rfemur 7.21166 -2.49044 13.0018
rtibia 5.25796
rfoot -15.7892 -3.07806
rtoes 13.6176
lfemur 10.8513 -1.20345 -17.8832
ltibia 0.570253
lfoot -11.7012 10.4162
ltoes -9.63837
4
root -30.3076 17.0955 0.877723 25.337 86.0214 27.0038
lowerback 5.73328 1.98403 -4.32609
upperback 1.07066 2.39518 -0.315044
thorax -2.27142 1.23347 1.91504
lowerneck -21.044 1.84851 2.97347
upperneck 25.5201 1.96775 -0.366731
head 11.9111 1.22537 -0.296241
rclavicle -2.44132e-014 1.37161e-014
rhumerus -34.2526 5.92059 -90.7816
rradius 30.0691
rwrist 5.26026
rhand -9.34995 -31.5203
rfingers 7.12502
rthumb 16.6096 -60.8295
lclavicle -2.44132e-014 1.37161e-014
lhumerus -30.8331 -10.095 93.0222
lradius 22.6161
lwrist -16.5908
lhand -15.8735 -28.2171
lfingers 7.12502
lthumb 10.3222 1.50958
rfemur 7.28811 -2.43868 13.2602
rtibia 5.23491
rfoot -15.8148 -3.10068
rtoes 12.9718
lfemur 10.9605 -1.23122 -17.6332
ltibia 0.509426
lfoot -11.7399 10.4422
ltoes -9.2125
5
root -30.3048 17.0953 0.880017 24.063 86.0369 25.8441
lowerback 5.84762 2.00603 -4.27724
upperback 1.07146 2.42252 -0.269741
thorax -2.33625 1.24799 1.92821
lowerneck -21.0355 1.8601 2.87027
upperneck 25.5711 1.99869 -0.282678
head 11.9274 1.24156 -0.242098
rclavicle 1.92138e-014 -9.44227e-015
rhumerus -34.368 6.25004 -90.9756
rradius 30.2931
rwrist 4.81925
rhand -9.80291 -32.3366
rfingers 7.12502
rthumb 16.1734 -61.6819
lclavicle 1.92138e-014 -9.44227e-015
lhumerus -30.9626 -10.124 93.112
lradius 22.6986
lwrist -16.5402
lhand -16.8081 -28.4835
lfingers 7.12502
lthumb 9.42047 1.28596
rfemur 7.45923 -2.33945 13.3889
rtibia 5.15847
rfoot -15.8064 -3.22867
rtoes 12.6673
lfemur 11.215 -1.55118 -17.6357
ltibia 0.291568
lfoot -11.8554 10.7952
ltoes -9.1736
6
root -30.3007 17.0933 0.880459 24.5414 86.0008 26.3406
lowerback 5.8379 2.01124 -4.35733
upperback 1.05568 2.42462 -0.257944
thorax -2.35106 1.25008 1.98493
lowerneck -21.0729 1.88088 2.83547
upperneck 25.6573 2.03613 -0.261383
head 11.9683 1.25905 -0.22121
rclavicle -1.67911e-014 1.49089e-015
rhumerus -34.3822 6.30484 -90.9606
rradius 30.2968
rwrist 4.76992
rhand -9.70615 -32.4454
rfingers 7.12502
rthumb 16.2666 -61.783
lclavicle -1.67911e-014 1.49089e-015
lhumerus -31.0576 -9.93029 93.0948
lradius 22.7613
lwrist -16.6913
lhand -15.7429 -28.3504
lfingers 7.12502
lthumb 10.4481 1.36998
rfemur 7.51482 -2.3254 13.3223
rtibia 5.11818
rfoot -15.8093 -3.17774
rtoes 13.0368
lfemur 11.3601 -1.91083 -17.8409
ltibia 0.101869
lfoot -11.9575 11.1777
ltoes -8.75929
7
root -30.2979 17.0921 0.881065 24.8458 85.969 26.5878
lowerback 5.74455 2.00566 -4.38868
upperback 1.03827 2.41898 -0.272977
thorax -2.31715 1.24694 1.99028
lowerneck -21.1458 1.88576 2.86909
upperneck 25.737 2.03655 -0.281315
head 12.0145 1.26064 -0.233093
rclavicle 1.59711e-014 -3.57812e-015
rhumerus -34.343 6.09943 -90.8156
rradius 30.1465
rwrist 5.0425
rhand -9.28304 -32.1329
rfingers 7.12502
rthumb 16.674 -61.4367
lclavicle 1.59711e-014 -3.57812e-015
lhumerus -31.0795 -9.73252 93.0239
lradius 22.8008
lwrist -16.8326
lhand -16.3254 -27.8062
lfingers 7.12502
lthumb 9.88618 1.94171
rfemur 7.46595 -2.34891 13.2669
rtibia 5.10971
rfoot -15.8041 -3.05934
rtoes 13.4177
lfemur 11.3205 -1.91483 -17.8811
ltibia 0.091551
lfoot -11.8188 11.1688
ltoes -8.41727
8
root -30.2993 17.0945 0.881978 25.1999 85.9762 27.0019
lowerback 5.8371 1.99337 -4.40578
upperback 1.0268 2.39632 -0.282935
thorax -2.37943 1.23716 1.98803
lowerneck -21.0903 1.88406 2.83893
upperneck 25.7105 2.03648 -0.246722
head 11.9924 1.26241 -0.215689
rclavicle -5.59082e-017 3.67752e-015
rhumerus -34.3751 6.08128 -90.7922
rradius 30.1019
rwrist 5.12235
rhand -9.24071 -32.2101
rfingers 7.12502
rthumb 16.7147 -61.5106
lclavicle -5.59082e-017 3.67752e-015
lhumerus -31.051 -9.44921 92.9481
lradius 22.6867
lwrist -16.9661
lhand -15.5658 -28.1291
lfingers 7.12502
lthumb 10.619 1.58255
rfemur 7.53844 -2.35998 13.2329
rtibia 5.09131
rfoot -15.7923 -3.08207
rtoes 13.4909
lfemur 11.3726 -1.91232 -17.8954
ltibia 0.0961766
lfoot -11.6547 11.0465
ltoes -8.05885
9
root -30.2989 17.0932 0.881598 23.9375 86.0296 25.6934
lowerback 5.82759 1.9722 -4.30097
upperback 0.972402 2.37335 -0.245282
thorax -2.42621 1.22614 1.96939
lowerneck -21.019 1.8844 2.7833
upperneck 25.6963 2.04895 -0.209479
head 11.9718 1.26803 -0.19101
rclavicle -2.18849e-014 6.65929e-015
rhumerus -34.4361 6.21944 -90.8231
rradius 30.1205
rwrist 4.97972
rhand -9.27879 -32.5313
rfingers 7.12502
rthumb 16.6781 -61.8349
lclavicle -2.18849e-014 6.65929e-015
lhumerus -31.065 -9.27093 92.9332
lradius 22.5733
lwrist -16.9632
lhand -16.5901 -28.2744
lfingers 7.12502
lthumb 9.63084 1.48549
rfemur 7.48623 -2.37554 13.3606
rtibia 5.10372
rfoot -15.7883 -3.11601
rtoes 13.4793
lfemur 11.3465 -1.95227 -17.7704
ltibia 0.0594923
lfoot -11.8205 11.0105
ltoes -7.35805
10
root -30.2964 17.091 0.88264 24.4325 86.0393 26.1412
lowerback 5.71695 1.95736 -4.35163
upperback 0.977575 2.3562 -0.246193
thorax -2.35986 1.21667 2.00206
lowerneck -21.0486 1.8736 2.7846
upperneck 25.7058 2.03076 -0.206588
head 11.981 1.26023 -0.192831
rclavicle 1.51387e-014 -5.96354e-015
rhumerus -34.3947 6.23659 -90.8093
rradius 30.0742
rwrist 5.01842
rhand -9.26797 -32.6068
rfingers 7.12502
rthumb 16.6885 -61.9094
lclavicle 1.51387e-014 -5.96354e-015
lhumerus -31.0268 -9.18127 92.9104
lradius 22.5546
lwrist -16.9296
lhand -15.7402 -28.409
lfingers 7.12502
lthumb 10.4508 1.31129
rfemur 7.4561 -2.43775 13.3199
rtibia 5.09538
rfoot -15.7905 -3.08555
rtoes 13.8282
lfemur 11.3289 -2.03172 -17.8266
ltibia 0.0122259
lfoot -12.0121 11.0946
ltoes -7.42362
11
root -30.2943 17.092 0.883777 28.2189 86.0054 29.9853
lowerback 5.74165 1.93724 -4.66025
upperback 0.988534 2.30957 -0.287919
thorax -2.36942 1.19619 2.1348
lowerneck -21.0252 1.92429 2.72134
upperneck 25.5428 2.06734 -0.0320972
head 11.9108 1.29075 -0.112458
rclavicle 1.74558e-015 1.65985e-014
rhumerus -34.4211 6.25982 -90.7769
rradius 30.0514
rwrist 5.0948
rhand -9.3025 -32.4954
rfingers 7.12502
rthumb 16.6552 -61.8008
lclavicle 1.74558e-015 1.65985e-014
lhumerus -30.9903 -8.95449 92.8806
lradius 22.4945
lwrist -17.0206
lhand -16.6502 -28.3457
lfingers 7.12502
lthumb 9.57288 1.41678
rfemur 7.58107 -2.41724 13.0192
rtibia 5.02017
rfoot -15.8196 -3.14743
rtoes 13.9422
lfemur 11.3763 -2.128 -18.1652
ltibia 0.00752709
lfoot -12.0217 11.1353
ltoes -7.97766
12
root -30.2916 17.0967 0.883635 29.4781 86.0282 31.2747
lowerback 5.7693 1.90199 -4.75998
upperback 0.961201 2.25416 -0.279631
thorax -2.41325 1.17066 2.20229
lowerneck -20.9088 1.95514 2.69288
upperneck 25.456 2.11311 0.00512168
head 11.8541 1.31297 -0.0881025
rclavicle -2.06519e-014 1.65985e-014
rhumerus -34.5067 6.27463 -90.7353
rradius 30.0659
rwrist 5.03987
rhand -9.17254 -32.3118
rfingers 7.12502
rthumb 16.7803 -61.6067
lclavicle -2.06519e-014 1.65985e-014
lhumerus -31.0752 -8.88942 92.925
lradius 22.5044
lwrist -16.9146
lhand -15.7385 -28.4377
lfingers 7.12502
lthumb 10.4524 1.28249
rfemur 7.66328 -2.45921 12.9199
rtibia 4.97606
rfoot -15.7907 -3.07926
rtoes 14.0521
lfemur 11.4106 -2.17468 -18.2534
ltibia 0.00363939
lfoot -12.0779 11.1685
ltoes -8.2703
13
root -30.2894 17.0992 0.88408 28.9641 85.9721 30.7121
lowerback 5.71929 1.90992 -4.75828
upperback 0.926658 2.26609 -0.275031
thorax -2.42205 1.17707 2.206
lowerneck -20.856 1.95081 2.66589
upperneck 25.4344 2.12035 -0.00189981
head 11.835 1.31276 -0.0856921
rclavicle 6.57853e-015 -1.54058e-014
rhumerus -34.5249 6.24335 -90.7037
rradius 30.0652
rwrist 5.00829
rhand -9.06702 -32.2459
rfingers 7.12502
rthumb 16.8819 -61.5321
lclavicle 6.57853e-015 -1.54058e-014
lhumerus -31.1333 -8.87335 92.9432
lradius 22.5068
lwrist -16.9131
lhand -15.7809 -28.4365
lfingers 7.12502
lthumb 10.4115 1.28576
rfemur 7.59456 -2.51357 12.9048
rtibia 5.00512
rfoot -15.7368 -2.94021
rtoes 14.5795
lfemur 11.381 -2.13108 -18.2441
ltibia 0.00235889
lfoot -12.1475 11.2736
ltoes -9.01493
14
root -30.2884 17.0997 0.884262 29.7698 85.7837 31.5257
lowerback 5.71364 1.96532 -4.90734
upperback 0.926262 2.33055 -0.315141
thorax -2.42828 1.21063 2.24265
lowerneck -20.8447 1.91458 2.6432
upperneck 25.3942 2.08098 -0.0214094
head 11.8165 1.28959 -0.0960272
rclavicle -1.39336e-014 5.36719e-015
rhumerus -34.52 6.26344 -90.7013
rradius 30.0901
rwrist 4.98119
rhand -9.09248 -32.4714
rfingers 7.12502
rthumb 16.8574 -61.7597
lclavicle -1.39336e-014 5.36719e-015
lhumerus -31.1185 -8.78599 92.9214
lradius 22.4597
lwrist -17.1597
lhand -15.9586 -28.5402
lfingers 7.12502
lthumb 10.2401 1.19052
rfemur 7.56893 -2.51714 12.7153
rtibia 5.02584
rfoot -15.6995 -2.82739
rtoes 14.4055
lfemur 11.4129 -2.00863 -18.4184
ltibia -0.0144441
lfoot -12.0195 11.3154
ltoes -9.77458
